<?xml version="1.0" encoding="UTF-8" standalone="no"?>
<svg
   width="132.004"
   height="132"
   version="1.1"
   id="svg9"
   sodipodi:docname="Instagram.svg"
   inkscape:version="1.3 (0e150ed6c4, 2023-07-21)"
   xmlns:inkscape="http://www.inkscape.org/namespaces/inkscape"
   xmlns:sodipodi="http://sodipodi.sourceforge.net/DTD/sodipodi-0.dtd"
   xmlns:xlink="http://www.w3.org/1999/xlink"
   xmlns="http://www.w3.org/2000/svg"
   xmlns:svg="http://www.w3.org/2000/svg">
  <sodipodi:namedview
     id="namedview9"
     pagecolor="#ffffff"
     bordercolor="#000000"
     borderopacity="0.25"
     inkscape:showpageshadow="2"
     inkscape:pageopacity="0.0"
     inkscape:pagecheckerboard="0"
     inkscape:deskcolor="#d1d1d1"
     inkscape:zoom="6.1590909"
     inkscape:cx="66.081181"
     inkscape:cy="66"
     inkscape:window-width="1920"
     inkscape:window-height="1009"
     inkscape:window-x="1912"
     inkscape:window-y="-8"
     inkscape:window-maximized="1"
     inkscape:current-layer="svg9" />
  <defs
     id="defs7">
    <linearGradient
       id="b">
      <stop
         offset="0"
         stop-color="#3771c8"
         id="stop1" />
      <stop
         stop-color="#3771c8"
         offset=".128"
         id="stop2" />
      <stop
         offset="1"
         stop-color="#60f"
         stop-opacity="0"
         id="stop3" />
    </linearGradient>
    <linearGradient
       id="a">
      <stop
         offset="0"
         stop-color="#fd5"
         id="stop4" />
      <stop
         offset=".1"
         stop-color="#fd5"
         id="stop5" />
      <stop
         offset=".5"
         stop-color="#ff543e"
         id="stop6" />
      <stop
         offset="1"
         stop-color="#c837ab"
         id="stop7" />
    </linearGradient>
    <radialGradient
       id="c"
       cx="158.429"
       cy="578.088"
       r="65"
       xlink:href="#a"
       gradientUnits="userSpaceOnUse"
       gradientTransform="matrix(0 -1.98198 1.8439 0 -1031.402 454.004)"
       fx="158.429"
       fy="578.088" />
    <radialGradient
       id="d"
       cx="147.694"
       cy="473.455"
       r="65"
       xlink:href="#b"
       gradientUnits="userSpaceOnUse"
       gradientTransform="matrix(.17394 .86872 -3.5818 .71718 1648.348 -458.493)"
       fx="147.694"
       fy="473.455" />
  </defs>
  <path
     fill="url(#c)"
     d="M65.03 0C37.888 0 29.95.028 28.407.156c-5.57.463-9.036 1.34-12.812 3.22-2.91 1.445-5.205 3.12-7.47 5.468C4 13.126 1.5 18.394.595 24.656c-.44 3.04-.568 3.66-.594 19.188-.01 5.176 0 11.988 0 21.125 0 27.12.03 35.05.16 36.59.45 5.42 1.3 8.83 3.1 12.56 3.44 7.14 10.01 12.5 17.75 14.5 2.68.69 5.64 1.07 9.44 1.25 1.61.07 18.02.12 34.44.12 16.42 0 32.84-.02 34.41-.1 4.4-.207 6.955-.55 9.78-1.28 7.79-2.01 14.24-7.29 17.75-14.53 1.765-3.64 2.66-7.18 3.065-12.317.088-1.12.125-18.977.125-36.81 0-17.836-.04-35.66-.128-36.78-.41-5.22-1.305-8.73-3.127-12.44-1.495-3.037-3.155-5.305-5.565-7.624C116.9 4 111.64 1.5 105.372.596 102.335.157 101.73.027 86.19 0H65.03z"
     transform="translate(1.004 1)"
     id="path7" />
  <path
     fill="url(#d)"
     d="M65.03 0C37.888 0 29.95.028 28.407.156c-5.57.463-9.036 1.34-12.812 3.22-2.91 1.445-5.205 3.12-7.47 5.468C4 13.126 1.5 18.394.595 24.656c-.44 3.04-.568 3.66-.594 19.188-.01 5.176 0 11.988 0 21.125 0 27.12.03 35.05.16 36.59.45 5.42 1.3 8.83 3.1 12.56 3.44 7.14 10.01 12.5 17.75 14.5 2.68.69 5.64 1.07 9.44 1.25 1.61.07 18.02.12 34.44.12 16.42 0 32.84-.02 34.41-.1 4.4-.207 6.955-.55 9.78-1.28 7.79-2.01 14.24-7.29 17.75-14.53 1.765-3.64 2.66-7.18 3.065-12.317.088-1.12.125-18.977.125-36.81 0-17.836-.04-35.66-.128-36.78-.41-5.22-1.305-8.73-3.127-12.44-1.495-3.037-3.155-5.305-5.565-7.624C116.9 4 111.64 1.5 105.372.596 102.335.157 101.73.027 86.19 0H65.03z"
     transform="translate(1.004 1)"
     id="path8" />
  <path
     fill="#ffffff"
     d="m 66.003041,28.228754 c -10.258041,0 -11.545411,0.04486 -15.574344,0.228201 -4.021064,0.184135 -6.765775,0.820737 -9.167396,1.754789 -2.484247,0.964741 -4.591568,2.255259 -6.69102,4.355497 -2.101024,2.099452 -3.391542,4.206772 -4.359431,6.690232 -0.936411,2.402409 -1.573801,5.147906 -1.754789,9.167396 -0.1802,4.028934 -0.227414,5.31709 -0.227414,15.575131 0,10.258041 0.04564,11.541476 0.228201,15.570409 0.184922,4.021064 0.821525,6.765775 1.75479,9.167397 0.965527,2.484246 2.256045,4.591567 4.356283,6.691019 2.098665,2.101025 4.205986,3.394695 6.688658,4.359435 2.403196,0.93404 5.148694,1.57065 9.16897,1.75478 4.028934,0.18335 5.315516,0.22821 15.572771,0.22821 10.258827,0 11.542262,-0.0449 15.571196,-0.22821 4.021064,-0.18413 6.768922,-0.82074 9.172117,-1.75478 2.48346,-0.96474 4.587633,-2.25841 6.686298,-4.359435 2.101025,-2.099452 3.391539,-4.206773 4.359429,-6.690233 0.92854,-2.402408 1.56593,-5.147906 1.75479,-9.167395 0.18099,-4.028933 0.22821,-5.313156 0.22821,-15.571197 0,-10.258041 -0.0473,-11.545411 -0.22821,-15.574344 -0.18886,-4.021063 -0.82625,-6.765774 -1.75479,-9.167396 -0.96789,-2.484247 -2.258404,-4.591567 -4.359429,-6.691019 C 95.326905,32.466215 93.22588,31.175698 90.739272,30.211744 88.331356,29.277692 85.585071,28.64109 81.564008,28.456955 77.535075,28.273608 76.252426,28.228754 65.991237,28.228754 Z m -3.388395,6.806693 c 1.005658,-0.0016 2.12778,0 3.388395,0 10.084923,0 11.280225,0.03619 15.262731,0.217185 3.682697,0.168396 5.681425,0.783753 7.012861,1.300747 1.762659,0.684604 3.019339,1.502981 4.340546,2.824974 1.321994,1.321995 2.140371,2.581035 2.826548,4.343694 0.516994,1.329863 1.133138,3.328591 1.300747,7.011287 0.180988,3.981719 0.220332,5.177808 0.220332,15.25801 0,10.080201 -0.03935,11.276291 -0.220332,15.25801 -0.168396,3.682696 -0.783753,5.681425 -1.300747,7.011287 -0.684603,1.762659 -1.504554,3.017766 -2.826548,4.338973 -1.321993,1.321993 -2.577101,2.14037 -4.340546,2.824974 -1.329863,0.519354 -3.330164,1.133137 -7.012861,1.301534 -3.981719,0.180988 -5.177808,0.220332 -15.262731,0.220332 -10.08571,0 -11.281012,-0.03934 -15.262732,-0.220332 -3.682696,-0.169971 -5.681424,-0.785327 -7.013648,-1.302321 -1.762658,-0.684604 -3.021699,-1.502981 -4.343693,-2.824975 -1.321993,-1.321993 -2.14037,-2.577887 -2.826548,-4.341333 -0.516994,-1.329862 -1.133138,-3.32859 -1.300748,-7.011286 -0.180987,-3.98172 -0.217184,-5.17781 -0.217184,-15.264306 0,-10.086497 0.03619,-11.27629 0.217184,-15.25801 0.168397,-3.682696 0.783754,-5.681424 1.300748,-7.01286 0.684604,-1.762659 1.504555,-3.021701 2.826548,-4.343694 1.321994,-1.321994 2.581035,-2.140371 4.343693,-2.826548 1.331437,-0.519355 3.330952,-1.133138 7.013648,-1.302321 3.484399,-0.15738 4.83472,-0.204594 11.874337,-0.212463 z m 23.550372,6.271601 c -2.502346,0 -4.532551,2.027844 -4.532551,4.530976 0,2.502345 2.030205,4.532549 4.532551,4.532549 2.502344,0 4.532549,-2.030204 4.532549,-4.532549 0,-2.502346 -2.030205,-4.53255 -4.532549,-4.53255 z m -20.161977,5.295844 c -10.712083,0 -19.397109,8.685026 -19.397109,19.397108 0,10.712082 8.685026,19.393174 19.397109,19.393174 10.712083,0 19.393961,-8.681092 19.393961,-19.393174 0,-10.712082 -8.682665,-19.397108 -19.394748,-19.397108 z m 0,6.806692 c 6.953057,0 12.590415,5.636572 12.590415,12.590416 0,6.953056 -5.637358,12.590416 -12.590415,12.590416 -6.953844,0 -12.590415,-5.63736 -12.590415,-12.590416 0,-6.953844 5.636571,-12.590416 12.590415,-12.590416 z"
     id="path9"
     style="stroke-width:0.786901" />
</svg>
