<?xml version="1.0" encoding="UTF-8" standalone="no"?>
<svg
   height="72"
   viewBox="0 0 72 72"
   width="72"
   version="1.1"
   id="svg2"
   sodipodi:docname="LinkedIn.svg"
   inkscape:version="1.3 (0e150ed6c4, 2023-07-21)"
   xmlns:inkscape="http://www.inkscape.org/namespaces/inkscape"
   xmlns:sodipodi="http://sodipodi.sourceforge.net/DTD/sodipodi-0.dtd"
   xmlns="http://www.w3.org/2000/svg"
   xmlns:svg="http://www.w3.org/2000/svg">
  <defs
     id="defs2" />
  <sodipodi:namedview
     id="namedview2"
     pagecolor="#ffffff"
     bordercolor="#000000"
     borderopacity="0.25"
     inkscape:showpageshadow="2"
     inkscape:pageopacity="0.0"
     inkscape:pagecheckerboard="0"
     inkscape:deskcolor="#d1d1d1"
     inkscape:zoom="11.291667"
     inkscape:cx="35.95572"
     inkscape:cy="36"
     inkscape:window-width="1920"
     inkscape:window-height="1009"
     inkscape:window-x="1912"
     inkscape:window-y="-8"
     inkscape:window-maximized="1"
     inkscape:current-layer="g2" />
  <g
     fill="none"
     fill-rule="evenodd"
     id="g2">
    <path
       d="M8,72 L64,72 C68.418278,72 72,68.418278 72,64 L72,8 C72,3.581722 68.418278,-8.11624501e-16 64,0 L8,0 C3.581722,8.11624501e-16 -5.41083001e-16,3.581722 0,8 L0,64 C5.41083001e-16,68.418278 3.581722,72 8,72 Z"
       fill="#007EBB"
       id="path1" />
    <path
       d="M 53.586716,53.586716 H 46.359675 V 41.277445 c 0,-3.374864 -1.282365,-5.260851 -3.953577,-5.260851 -2.905929,0 -4.424157,1.962662 -4.424157,5.260851 V 53.586716 H 31.017097 V 30.137762 h 6.964844 v 3.15857 c 0,0 2.094147,-3.874971 7.07018,-3.874971 4.973743,0 8.534595,3.037263 8.534595,9.318928 z M 22.708061,27.067311 c -2.372375,0 -4.294777,-1.937486 -4.294777,-4.327014 0,-2.389527 1.922402,-4.327013 4.294777,-4.327013 2.372374,0 4.293632,1.937486 4.293632,4.327013 0,2.389528 -1.921258,4.327014 -4.293632,4.327014 z M 19.111715,53.586716 H 26.37425 V 30.137762 h -7.262535 z"
       fill="#ffffff"
       id="path2"
       style="stroke-width:0.676412" />
  </g>
</svg>
