<?xml version="1.0" encoding="UTF-8" standalone="no"?>
<!-- Created with Inkscape (http://www.inkscape.org/) -->

<svg
   version="1.1"
   id="svg2"
   width="666.66669"
   height="666.66669"
   viewBox="0 0 666.66669 666.66669"
   sodipodi:docname="Mail.svg"
   inkscape:version="1.3 (0e150ed6c4, 2023-07-21)"
   xmlns:inkscape="http://www.inkscape.org/namespaces/inkscape"
   xmlns:sodipodi="http://sodipodi.sourceforge.net/DTD/sodipodi-0.dtd"
   xmlns="http://www.w3.org/2000/svg"
   xmlns:svg="http://www.w3.org/2000/svg">
  <defs
     id="defs6">
    <clipPath
       clipPathUnits="userSpaceOnUse"
       id="clipPath16">
      <path
         d="M 0,500 H 500 V 0 H 0 Z"
         id="path14" />
    </clipPath>
  </defs>
  <sodipodi:namedview
     id="namedview4"
     pagecolor="#ffffff"
     bordercolor="#000000"
     borderopacity="0.25"
     inkscape:showpageshadow="2"
     inkscape:pageopacity="0.0"
     inkscape:pagecheckerboard="0"
     inkscape:deskcolor="#d1d1d1"
     showgrid="false"
     inkscape:zoom="1.2195"
     inkscape:cx="332.92334"
     inkscape:cy="333.33334"
     inkscape:window-width="1920"
     inkscape:window-height="1009"
     inkscape:window-x="1912"
     inkscape:window-y="-8"
     inkscape:window-maximized="1"
     inkscape:current-layer="g12" />
  <g
     id="g8"
     inkscape:groupmode="layer"
     inkscape:label="mail-icon-seeklogo.com"
     transform="matrix(1.3333333,0,0,-1.3333333,0,666.66667)">
    <g
       id="g10"
       style="stroke:none;stroke-opacity:1">
      <g
         id="g12"
         clip-path="url(#clipPath16)"
         style="stroke:none;stroke-opacity:1">
        <g
           id="g18"
           transform="translate(439.1875,249.9995)"
           style="stroke:none;stroke-opacity:1">
          <path
             d="m 61.500781,0 c 0,-138.4495 -112.240771,-250.68762 -250.687621,-250.68762 -138.45347,0 -250.68894,112.23812 -250.68894,250.68762 0,138.45347 112.23547,250.68762 250.68894,250.68762 C -50.73999,250.68762 61.500781,138.45347 61.500781,0"
             style="fill:#2c4762;fill-opacity:1;fill-rule:evenodd;stroke:none;stroke-width:1.32508;stroke-opacity:1"
             id="path20" />
        </g>
        <g
           id="g22"
           transform="translate(250.0283,174.6543)"
           style="stroke:none;stroke-opacity:1">
          <path
             d="m 0,0 c -33.007,0 -66.016,-0.004 -99.026,0.002 -8.833,0 -14.771,5.977 -14.773,14.853 -0.003,29.872 0,59.743 0,89.616 0,7.612 0.529,7.949 7.147,4.414 30.952,-16.538 61.94,-33.014 92.835,-49.666 9.301,-5.014 18.236,-5.028 27.53,-0.024 30.792,16.58 61.667,32.999 92.511,49.478 0.995,0.532 1.97,1.108 3,1.565 3.259,1.45 4.496,0.771 4.5,-2.696 0.033,-31.63 0.064,-63.259 -0.022,-94.888 C 113.685,6.084 106.805,0.01 99.782,0.006 66.522,-0.01 33.261,0 0,0"
             style="fill:#fefefe;fill-opacity:1;fill-rule:evenodd;stroke:none;stroke-opacity:1"
             id="path24" />
        </g>
        <g
           id="g26"
           transform="translate(249.9766,324.5913)"
           style="stroke:none;stroke-opacity:1">
          <path
             d="m 0,0 c 35.146,0 70.295,0.009 105.442,-0.014 2.829,-0.003 6.226,0.603 7.537,-2.763 1.31,-3.369 -0.944,-5.963 -3.045,-8.365 -1.431,-1.631 -3.254,-2.731 -5.131,-3.761 C 74.25,-31.678 43.709,-48.467 13.15,-65.227 c -8.709,-4.774 -17.495,-4.802 -26.203,-0.026 -30.563,16.756 -61.097,33.558 -91.658,50.313 -3.392,1.86 -6.292,4.178 -7.909,7.757 -1.784,3.947 -0.154,6.671 4.164,7.116 1.245,0.127 2.509,0.066 3.765,0.066 C -69.795,0 -34.898,0 0,0"
             style="fill:#fefefe;fill-opacity:1;fill-rule:evenodd;stroke:none;stroke-opacity:1"
             id="path28" />
        </g>
      </g>
    </g>
  </g>
</svg>
